<?xml version="1.0" encoding="UTF-8"?>
<!--Generator: Apple Native CoreSVG 341-->
<!DOCTYPE svg
PUBLIC "-//W3C//DTD SVG 1.1//EN"
       "http://www.w3.org/Graphics/SVG/1.1/DTD/svg11.dtd">
<svg version="1.1" xmlns="http://www.w3.org/2000/svg" xmlns:xlink="http://www.w3.org/1999/xlink" viewBox="0 0 53.3447 53.0518">
 <g>
  <rect height="53.0518" opacity="0" width="53.3447" x="0" y="0"/>
  <path d="M26.4893 11.8164C27.6611 11.8164 28.6377 10.8398 28.6377 9.66797L28.6377 2.14844C28.6377 0.976562 27.6611 0 26.4893 0C25.3418 0 24.3652 0.976562 24.3652 2.14844L24.3652 9.66797C24.3652 10.8398 25.3418 11.8164 26.4893 11.8164ZM36.8896 16.1133C37.6953 16.9434 39.1113 16.9434 39.917 16.1133L45.2393 10.791C46.0449 9.96094 46.0449 8.59375 45.2393 7.78809C44.4092 6.95801 43.042 6.95801 42.2363 7.78809L36.8896 13.0859C36.084 13.916 36.084 15.3076 36.8896 16.1133ZM41.2109 26.5137C41.2109 27.6611 42.1875 28.6377 43.335 28.6377L50.8545 28.6377C52.0264 28.6377 53.0029 27.6611 53.0029 26.5137C53.0029 25.3662 52.0264 24.3896 50.8545 24.3896L43.335 24.3896C42.1875 24.3896 41.2109 25.3662 41.2109 26.5137ZM16.1133 36.8896C15.3076 36.084 13.8916 36.084 13.0859 36.8896L7.76367 42.2363C6.95801 43.042 6.95801 44.4336 7.76367 45.2393C8.59375 46.0449 9.96094 46.0449 10.7666 45.2393L16.1133 39.917C16.9189 39.1113 16.9189 37.7197 16.1133 36.8896ZM11.792 26.5137C11.792 25.3662 10.8154 24.3896 9.66797 24.3896L2.12402 24.3896C0.976562 24.3896 0 25.3662 0 26.5137C0 27.6611 0.976562 28.6377 2.12402 28.6377L9.66797 28.6377C10.8154 28.6377 11.792 27.6611 11.792 26.5137ZM16.1133 16.1133C16.9189 15.3076 16.9189 13.916 16.1133 13.0859L10.7666 7.78809C9.96094 6.95801 8.59375 6.95801 7.76367 7.78809C6.95801 8.59375 6.95801 9.96094 7.76367 10.791L13.0859 16.1133C13.8916 16.9434 15.3076 16.9434 16.1133 16.1133Z" fill="black" fill-opacity="0.85"/>
  <path d="M33.8379 43.9941L41.6504 43.9941C43.7012 43.9941 44.4824 42.1631 43.2861 40.9424L28.3203 25.9521C26.9775 24.6338 24.9756 25.3418 24.9756 27.2461L24.9756 48.5352C24.9756 50.2441 26.8555 50.9277 28.2959 49.5361Z" fill="black" fill-opacity="0.85"/>
 </g>
</svg>
