<?xml version="1.0" encoding="UTF-8"?>
<!--Generator: Apple Native CoreSVG 341-->
<!DOCTYPE svg
PUBLIC "-//W3C//DTD SVG 1.1//EN"
       "http://www.w3.org/Graphics/SVG/1.1/DTD/svg11.dtd">
<svg version="1.1" xmlns="http://www.w3.org/2000/svg" xmlns:xlink="http://www.w3.org/1999/xlink" viewBox="0 0 52.4902 60.9619">
 <g>
  <rect height="60.9619" opacity="0" width="52.4902" x="0" y="0"/>
  <path d="M10.8643 39.3066C10.3271 39.3066 9.96094 39.6484 9.91211 40.21C8.98438 47.7539 8.61816 47.9492 0.976562 49.1943C0.341797 49.2676 0 49.585 0 50.1465C0 50.6836 0.341797 51.001 0.854492 51.0742C8.56934 52.5635 8.98438 52.5146 9.91211 60.0342C9.96094 60.6201 10.3271 60.9619 10.8643 60.9619C11.377 60.9619 11.7676 60.6201 11.8164 60.0586C12.793 52.417 13.0859 52.1973 20.8496 51.0742C21.3379 51.0254 21.7041 50.6836 21.7041 50.1465C21.7041 49.6094 21.3379 49.2676 20.8496 49.1943C13.0859 47.7051 12.8174 47.7051 11.8164 40.1611C11.7676 39.6484 11.377 39.3066 10.8643 39.3066Z" fill="black" fill-opacity="0.85"/>
  <path d="M29.9561 8.10547C29.248 8.10547 28.6865 8.61816 28.5889 9.375C26.4648 24.8291 24.3408 26.8799 9.10645 28.9062C8.3252 28.9795 7.76367 29.541 7.76367 30.2734C7.76367 31.0303 8.3252 31.6162 9.10645 31.6895C24.3896 33.3496 26.5869 35.7422 28.5889 51.1719C28.6865 51.9287 29.248 52.4658 29.9561 52.4658C30.6885 52.4658 31.2256 51.9287 31.3477 51.1719C33.374 35.7422 35.5469 33.3496 50.8301 31.6895C51.6357 31.6162 52.1484 31.0303 52.1484 30.2734C52.1484 29.541 51.6357 28.9795 50.8301 28.9062C35.5469 27.1973 33.374 24.8291 31.3477 9.375C31.2256 8.61816 30.6885 8.10547 29.9561 8.10547Z" fill="black" fill-opacity="0.85"/>
 </g>
</svg>
